<mxfile host="app.diagrams.net" modified="2024-02-12T02:33:38.429Z" agent="Mozilla/5.0 (Macintosh; Intel Mac OS X 10_15_7) AppleWebKit/537.36 (KHTML, like Gecko) Chrome/121.0.0.0 Safari/537.36" version="23.1.2" etag="ZDOulySR7trNAi95tNt4" type="github">
  <diagram name="หน้า-1" id="dnJeEO3B8AqFFuo-cf_0">
    <mxGraphModel>
      <root>
        <mxCell id="0" />
        <mxCell id="1" parent="0" />
      </root>
    </mxGraphModel>
  </diagram>
</mxfile>
